M48
;Layer_Color=9474304
;FILE_FORMAT=2:4
METRIC,LZ
;TYPE=PLATED
T1F00S00C0.3000
T2F00S00C0.5000
T3F00S00C0.6000
T4F00S00C0.7112
T5F00S00C0.9000
T6F00S00C2.4000
%
T01
X510963Y118511
X560963Y178511
X570963Y198511
X452213Y19201
X442713Y19526
X442963Y20401
X433963Y19876
X410963Y198511
X390963
X370963
X350963
X310963
X313463Y18526
X297213Y18176
X297134Y189618
X290963Y158511
X310963
X330963
X340963Y138511
X330963Y118511
X340963Y098511
X369213Y13101
X390963Y158511
X400963Y178511
X380963
X460963
X450963Y158511
X460963Y138511
X440963
X450963Y118511
X430963
X440963Y098511
X420963
X410963Y078511
X480963Y098511
X500963
X490963Y118511
X500963Y138511
X260963
X270963Y158511
X250963
X256713Y18526
X220213Y18776
X220963Y178511
X200963
X174212Y181761
X180104Y192187
X140963Y178511
X120963
X110963Y198511
Y158511
X120963Y138511
X128963Y11026
X138713Y11901
X170963Y118511
X180963Y138511
X150963Y158511
X134193Y230567
X115213Y241761
X150963Y278511
X180963Y258511
X190963Y238511
X214713Y23576
X214213Y22801
X250963Y118511
X260963Y098511
X170963Y078511
X120963Y098511
X100963Y138511
X080963
X060963
X070963Y158511
X090963
X100963Y178511
X080963
X060963
X040963
X050963Y198511
X070963
X090963
X080963Y218511
X060963
X040963
X020963
X030963Y238511
X050963
X060963Y258511
X040963
X020963
X050963Y278511
X095463Y25601
X102511Y248165
X030963Y198511
X050963Y158511
X020963Y338511
X030963Y358511
X020963Y378511
X030963Y398511
X040963Y418511
X050963Y438511
X430963Y478511
X462278Y493597
X460963Y538511
X440963
X420963
X410963Y558511
X517713Y44201
X558463Y41101
X567515Y408957
X570963Y398511
X53405Y349972
X536213Y34101
T02
X567463Y20701
X183213Y22076
X562713Y34851
T03
X100209Y090885
X091711Y100323
X083213Y10976
X074715Y119198
X066217Y128636
X072268Y460358
X088681Y465445
X090048Y482574
X106895Y485957
X110006Y502856
X1915Y42
X2165
Y38
X22Y360309
X188
X1915Y38
X2615Y379691
X258Y36
X29
X2865Y379691
Y419691
X2615
X3335
X3585
Y379691
X362Y36
X33
X3335Y379691
X4015
X398Y36
X43
X4265Y379691
Y419691
X4015
X475444Y498758
X492486Y496552
X495038Y479559
X471169Y515401
X515303Y454731
X53144Y448826
X530187Y431688
X545636Y424165
T04
X277463Y10376
Y12351
X297213
Y10376
X316963
Y12351
Y14326
X297213
X277463
T05
X519953Y14522
X531173Y16297
T06
X573416Y297986
X457921Y073715
X137921
X022426Y297986
X167421Y506277
X428421
M30
