G04*
G04 #@! TF.GenerationSoftware,Altium Limited,Altium Designer,22.7.1 (60)*
G04*
G04 Layer_Color=32896*
%FSLAX44Y44*%
%MOMM*%
G71*
G04*
G04 #@! TF.SameCoordinates,79595E02-05C2-4DB9-B37B-C8AD278AF881*
G04*
G04*
G04 #@! TF.FilePolarity,Positive*
G04*
G01*
G75*
%ADD32C,0.2500*%
%ADD33C,0.5000*%
%ADD47C,0.2540*%
D32*
X133493Y124874D02*
X140182Y117445D01*
X136468Y114101D01*
X134115Y114224D01*
X133000Y115462D01*
X131885Y116701D01*
X132008Y119054D01*
X135723Y122398D01*
X131515Y109642D02*
X129039Y107412D01*
X126686Y107535D01*
X124456Y110011D01*
X124579Y112364D01*
X127056Y114594D01*
X129409Y114471D01*
X131638Y111994D01*
X131515Y109642D01*
X124086Y102952D02*
X121610Y100723D01*
X119257Y100846D01*
X117027Y103322D01*
X117150Y105675D01*
X119627Y107905D01*
X121980Y107782D01*
X124209Y105305D01*
X124086Y102952D01*
X111083Y102454D02*
X112198Y101216D01*
X113436Y102331D01*
X110959Y100101D01*
X112198Y101216D01*
X115542Y97501D01*
X115419Y95148D01*
X115932Y123110D02*
X116055Y125463D01*
X118531Y127693D01*
X120885Y127570D01*
X125344Y122617D01*
X125221Y120264D01*
X122744Y118034D01*
X120391Y118158D01*
X118161Y120634D01*
X120638Y122864D01*
X119030Y114690D02*
X112340Y122119D01*
X114077Y110230D01*
X107388Y117659D01*
X104911Y115430D02*
X111601Y108000D01*
X107886Y104656D01*
X105533Y104779D01*
X101074Y109732D01*
X101197Y112085D01*
X104911Y115430D01*
X103341Y135869D02*
X98388Y131409D01*
X100864Y133639D01*
X107553Y126210D01*
X95912Y129179D02*
X97648Y117291D01*
X90959Y124720D02*
X102601Y121750D01*
X100780Y139190D02*
X94090Y146619D01*
X90376Y143274D01*
X90253Y140921D01*
X92482Y138445D01*
X94835Y138321D01*
X98550Y141666D01*
X96074Y139436D02*
X95827Y134730D01*
X86662Y139930D02*
X88398Y128041D01*
X81709Y135470D02*
X93351Y132500D01*
X91635Y162820D02*
X89281Y162943D01*
X86805Y160713D01*
X86682Y158360D01*
X87797Y157122D01*
X90150Y156999D01*
X91388Y158114D01*
X90150Y156999D01*
X90026Y154646D01*
X91141Y153408D01*
X93494Y153284D01*
X95971Y155514D01*
X96094Y157867D01*
X83091Y157369D02*
X87550Y152416D01*
X87303Y147710D01*
X82597Y147957D01*
X78138Y152909D01*
X76776Y149441D02*
X74423Y149565D01*
X71947Y147335D01*
X71824Y144982D01*
X72938Y143744D01*
X75292Y143621D01*
X76530Y144735D01*
X75292Y143621D01*
X75168Y141267D01*
X76283Y140029D01*
X78636Y139906D01*
X81112Y142136D01*
X81236Y144489D01*
D33*
X530715Y217004D02*
X540047Y189010D01*
X530715Y217004D02*
X521384Y189010D01*
X530715Y213005D02*
X522717Y189010D01*
X537381Y197009D02*
X525383D01*
X542713Y189010D02*
X534715D01*
X526716D02*
X518718D01*
X511120Y207673D02*
Y193010D01*
X509787Y190343D01*
X505788Y189010D01*
X503121D01*
X499122Y190343D01*
X496456Y193010D01*
X509787Y207673D02*
Y193010D01*
X508454Y190343D01*
X505788Y189010D01*
X496456Y207673D02*
Y189010D01*
X495123Y207673D02*
Y189010D01*
X515119Y207673D02*
X509787D01*
X500455D02*
X495123D01*
X496456Y189010D02*
X491124D01*
X479526D02*
X480860Y190343D01*
X482193Y194343D01*
Y217004D01*
X483526D01*
Y194343D01*
X482193Y190343D01*
X479526Y189010D01*
X476860D01*
X474194Y190343D01*
X472861Y193010D01*
X487525Y207673D02*
X476860D01*
X460331D02*
X464330Y206340D01*
X466996Y203674D01*
X468329Y199675D01*
Y197009D01*
X466996Y193010D01*
X464330Y190343D01*
X460331Y189010D01*
X457665D01*
X453665Y190343D01*
X450999Y193010D01*
X449666Y197009D01*
Y199675D01*
X450999Y203674D01*
X453665Y206340D01*
X457665Y207673D01*
X460331D01*
X462997Y206340D01*
X465663Y203674D01*
X466996Y199675D01*
Y197009D01*
X465663Y193010D01*
X462997Y190343D01*
X460331Y189010D01*
X457665D02*
X454999Y190343D01*
X452332Y193010D01*
X450999Y197009D01*
Y199675D01*
X452332Y203674D01*
X454999Y206340D01*
X457665Y207673D01*
X441535D02*
Y189010D01*
X440202Y207673D02*
Y189010D01*
Y203674D02*
X437536Y206340D01*
X433536Y207673D01*
X430870D01*
X426871Y206340D01*
X425538Y203674D01*
Y189010D01*
X430870Y207673D02*
X428204Y206340D01*
X426871Y203674D01*
Y189010D01*
X425538Y203674D02*
X422872Y206340D01*
X418873Y207673D01*
X416207D01*
X412208Y206340D01*
X410875Y203674D01*
Y189010D01*
X416207Y207673D02*
X413541Y206340D01*
X412208Y203674D01*
Y189010D01*
X445534Y207673D02*
X440202D01*
X445534Y189010D02*
X436203D01*
X430870D02*
X421539D01*
X416207D02*
X406875D01*
X402076Y205007D02*
Y203674D01*
X403410D01*
Y205007D01*
X402076Y206340D01*
X399410Y207673D01*
X394078D01*
X391412Y206340D01*
X390079Y205007D01*
X388746Y202341D01*
Y193010D01*
X387413Y190343D01*
X386080Y189010D01*
X390079Y205007D02*
Y193010D01*
X388746Y190343D01*
X386080Y189010D01*
X384747D01*
X390079Y202341D02*
X391412Y201008D01*
X399410Y199675D01*
X403410Y198342D01*
X404743Y195676D01*
Y193010D01*
X403410Y190343D01*
X399410Y189010D01*
X395411D01*
X392745Y190343D01*
X390079Y193010D01*
X399410Y199675D02*
X402076Y198342D01*
X403410Y195676D01*
Y193010D01*
X402076Y190343D01*
X399410Y189010D01*
X372749D02*
X374082Y190343D01*
X375415Y194343D01*
Y217004D01*
X376749D01*
Y194343D01*
X375415Y190343D01*
X372749Y189010D01*
X370083D01*
X367417Y190343D01*
X366084Y193010D01*
X380748Y207673D02*
X370083D01*
X357553Y217004D02*
X358886Y215671D01*
X357553Y214338D01*
X356220Y215671D01*
X357553Y217004D01*
Y207673D02*
Y189010D01*
X356220Y207673D02*
Y189010D01*
X361552Y207673D02*
X356220D01*
X361552Y189010D02*
X352220D01*
X331158Y203674D02*
X332491Y202341D01*
X331158Y201008D01*
X329825Y202341D01*
Y203674D01*
X332491Y206340D01*
X335158Y207673D01*
X339157D01*
X343156Y206340D01*
X345822Y203674D01*
X347155Y199675D01*
Y197009D01*
X345822Y193010D01*
X343156Y190343D01*
X339157Y189010D01*
X336491D01*
X332491Y190343D01*
X329825Y193010D01*
X339157Y207673D02*
X341823Y206340D01*
X344489Y203674D01*
X345822Y199675D01*
Y197009D01*
X344489Y193010D01*
X341823Y190343D01*
X339157Y189010D01*
X291034Y217004D02*
Y189010D01*
X289701Y217004D02*
Y189010D01*
X299032Y217004D02*
X300365Y209006D01*
Y217004D01*
X280369D01*
Y209006D01*
X281702Y217004D01*
X295033Y189010D02*
X285702D01*
X272371Y207673D02*
Y189010D01*
X271038Y207673D02*
Y189010D01*
Y199675D02*
X269705Y203674D01*
X267039Y206340D01*
X264373Y207673D01*
X260374D01*
X259041Y206340D01*
Y205007D01*
X260374Y203674D01*
X261707Y205007D01*
X260374Y206340D01*
X276370Y207673D02*
X271038D01*
X276370Y189010D02*
X267039D01*
X250776Y217004D02*
X252109Y215671D01*
X250776Y214338D01*
X249443Y215671D01*
X250776Y217004D01*
Y207673D02*
Y189010D01*
X249443Y207673D02*
Y189010D01*
X254775Y207673D02*
X249443D01*
X254775Y189010D02*
X245443D01*
X224381Y203674D02*
X225714Y202341D01*
X224381Y201008D01*
X223048Y202341D01*
Y203674D01*
X225714Y206340D01*
X228380Y207673D01*
X232380D01*
X236379Y206340D01*
X239045Y203674D01*
X240378Y199675D01*
Y197009D01*
X239045Y193010D01*
X236379Y190343D01*
X232380Y189010D01*
X229713D01*
X225714Y190343D01*
X223048Y193010D01*
X232380Y207673D02*
X235046Y206340D01*
X237712Y203674D01*
X239045Y199675D01*
Y197009D01*
X237712Y193010D01*
X235046Y190343D01*
X232380Y189010D01*
X214783Y217004D02*
Y189010D01*
X213450Y217004D02*
Y189010D01*
X200120Y207673D02*
X213450Y194343D01*
X206785Y199675D02*
X198787Y189010D01*
X208118Y199675D02*
X200120Y189010D01*
X218783Y217004D02*
X213450D01*
X204119Y207673D02*
X196121D01*
X218783Y189010D02*
X209451D01*
X204119D02*
X196121D01*
X188389Y217004D02*
Y189010D01*
X187056Y217004D02*
Y189010D01*
X192388Y217004D02*
X187056D01*
X192388Y189010D02*
X183057D01*
X176658Y199675D02*
X160662D01*
Y202341D01*
X161995Y205007D01*
X163328Y206340D01*
X165994Y207673D01*
X169993D01*
X173992Y206340D01*
X176658Y203674D01*
X177991Y199675D01*
Y197009D01*
X176658Y193010D01*
X173992Y190343D01*
X169993Y189010D01*
X167327D01*
X163328Y190343D01*
X160662Y193010D01*
X161995Y199675D02*
Y203674D01*
X163328Y206340D01*
X169993Y207673D02*
X172659Y206340D01*
X175325Y203674D01*
X176658Y199675D01*
Y197009D01*
X175325Y193010D01*
X172659Y190343D01*
X169993Y189010D01*
X128535Y217004D02*
X119204Y189010D01*
X127202Y217004D02*
X119204Y193010D01*
X109873Y217004D02*
X119204Y189010D01*
X131201Y217004D02*
X123203D01*
X115205D02*
X107206D01*
X102274Y199675D02*
X86278D01*
Y202341D01*
X87611Y205007D01*
X88944Y206340D01*
X91610Y207673D01*
X95609D01*
X99608Y206340D01*
X102274Y203674D01*
X103607Y199675D01*
Y197009D01*
X102274Y193010D01*
X99608Y190343D01*
X95609Y189010D01*
X92943D01*
X88944Y190343D01*
X86278Y193010D01*
X87611Y199675D02*
Y203674D01*
X88944Y206340D01*
X95609Y207673D02*
X98275Y206340D01*
X100941Y203674D01*
X102274Y199675D01*
Y197009D01*
X100941Y193010D01*
X98275Y190343D01*
X95609Y189010D01*
X78013Y207673D02*
Y189010D01*
X76680Y207673D02*
Y189010D01*
Y203674D02*
X74014Y206340D01*
X70014Y207673D01*
X67348D01*
X63349Y206340D01*
X62016Y203674D01*
Y189010D01*
X67348Y207673D02*
X64682Y206340D01*
X63349Y203674D01*
Y189010D01*
X82012Y207673D02*
X76680D01*
X82012Y189010D02*
X72681D01*
X67348D02*
X58017D01*
X46420D02*
X47752Y190343D01*
X49086Y194343D01*
Y217004D01*
X50419D01*
Y194343D01*
X49086Y190343D01*
X46420Y189010D01*
X43753D01*
X41087Y190343D01*
X39754Y193010D01*
X54418Y207673D02*
X43753D01*
D47*
X528423Y122550D02*
X518266D01*
X558173Y170629D02*
X548016D01*
X553095Y175707D02*
Y165550D01*
X550055Y414258D02*
X552594Y416797D01*
X557672D01*
X560211Y414258D01*
Y404101D01*
X557672Y401562D01*
X552594D01*
X550055Y404101D01*
X535423Y405550D02*
Y415707D01*
X530345Y420785D01*
X525266Y415707D01*
Y405550D01*
Y413168D01*
X535423D01*
X519423Y439286D02*
Y424050D01*
Y429129D01*
X509266Y439286D01*
X516884Y431668D01*
X509266Y424050D01*
X520566Y477455D02*
X530723D01*
Y462220D01*
X520566D01*
X530723Y469837D02*
X525645D01*
X504266Y483246D02*
X506805Y485785D01*
X511884D01*
X514423Y483246D01*
Y473090D01*
X511884Y470550D01*
X506805D01*
X504266Y473090D01*
X484423Y473800D02*
Y483957D01*
X479345Y489035D01*
X474266Y483957D01*
Y473800D01*
Y481418D01*
X484423D01*
X463423Y509286D02*
Y494050D01*
Y499129D01*
X453266Y509286D01*
X460884Y501668D01*
X453266Y494050D01*
X451686Y534907D02*
X461843D01*
Y519672D01*
X451686D01*
X461843Y527290D02*
X456764D01*
X75423Y435050D02*
Y450285D01*
X67805D01*
X65266Y447746D01*
Y442668D01*
X67805Y440129D01*
X75423D01*
X60188Y450285D02*
X55110D01*
X57649D01*
Y435050D01*
X60188D01*
X55110D01*
X108423Y453036D02*
Y437800D01*
X100805D01*
X98266Y440340D01*
Y442879D01*
X100805Y445418D01*
X108423D01*
X100805D01*
X98266Y447957D01*
Y450496D01*
X100805Y453036D01*
X108423D01*
X93188D02*
Y437800D01*
X83031D01*
X127173Y458050D02*
Y473285D01*
X119555D01*
X117016Y470746D01*
Y465668D01*
X119555Y463129D01*
X127173D01*
X122095D02*
X117016Y458050D01*
X101781Y473285D02*
X111938D01*
Y458050D01*
X101781D01*
X111938Y465668D02*
X106860D01*
X144423Y494785D02*
Y492246D01*
X139345Y487168D01*
X134266Y492246D01*
Y494785D01*
X139345Y487168D02*
Y479551D01*
X119031Y494785D02*
X129188D01*
Y479551D01*
X119031D01*
X129188Y487168D02*
X124109D01*
X132805Y525036D02*
X137884D01*
X140423Y522496D01*
Y512340D01*
X137884Y509800D01*
X132805D01*
X130266Y512340D01*
Y522496D01*
X132805Y525036D01*
X125188Y509800D02*
Y525036D01*
X117570D01*
X115031Y522496D01*
Y517418D01*
X117570Y514879D01*
X125188D01*
X120110D02*
X115031Y509800D01*
M02*
