G04*
G04 #@! TF.GenerationSoftware,Altium Limited,Altium Designer,22.7.1 (60)*
G04*
G04 Layer_Color=16711935*
%FSLAX44Y44*%
%MOMM*%
G71*
G04*
G04 #@! TF.SameCoordinates,79595E02-05C2-4DB9-B37B-C8AD278AF881*
G04*
G04*
G04 #@! TF.FilePolarity,Negative*
G04*
G01*
G75*
%ADD64C,1.7032*%
%ADD65C,1.4032*%
G04:AMPARAMS|DCode=66|XSize=1.4mm|YSize=1.6mm|CornerRadius=0mm|HoleSize=0mm|Usage=FLASHONLY|Rotation=108.000|XOffset=0mm|YOffset=0mm|HoleType=Round|Shape=Round|*
%AMOVALD66*
21,1,0.2000,1.4000,0.0000,0.0000,198.0*
1,1,1.4000,0.0951,0.0309*
1,1,1.4000,-0.0951,-0.0309*
%
%ADD66OVALD66*%

%ADD67C,1.6000*%
%ADD68P,1.5556X4X357.0*%
%ADD69C,1.1000*%
%ADD70C,4.6000*%
G04:AMPARAMS|DCode=71|XSize=1.4mm|YSize=1.6mm|CornerRadius=0mm|HoleSize=0mm|Usage=FLASHONLY|Rotation=150.000|XOffset=0mm|YOffset=0mm|HoleType=Round|Shape=Round|*
%AMOVALD71*
21,1,0.2000,1.4000,0.0000,0.0000,240.0*
1,1,1.4000,0.0500,0.0866*
1,1,1.4000,-0.0500,-0.0866*
%
%ADD71OVALD71*%

G04:AMPARAMS|DCode=72|XSize=1.4mm|YSize=1.6mm|CornerRadius=0mm|HoleSize=0mm|Usage=FLASHONLY|Rotation=225.000|XOffset=0mm|YOffset=0mm|HoleType=Round|Shape=Round|*
%AMOVALD72*
21,1,0.2000,1.4000,0.0000,0.0000,315.0*
1,1,1.4000,-0.0707,0.0707*
1,1,1.4000,0.0707,-0.0707*
%
%ADD72OVALD72*%

%ADD73C,1.3700*%
D64*
X430000Y360000D02*
D03*
X398000D02*
D03*
X362000D02*
D03*
X330000D02*
D03*
X290000D02*
D03*
X258000D02*
D03*
X220000Y360309D02*
D03*
X188000D02*
D03*
D65*
X426500Y419691D02*
D03*
Y379691D02*
D03*
X401500Y419691D02*
D03*
Y379691D02*
D03*
X358500Y419691D02*
D03*
Y379691D02*
D03*
X333500Y419691D02*
D03*
Y379691D02*
D03*
X286500Y419691D02*
D03*
Y379691D02*
D03*
X261500Y419691D02*
D03*
Y379691D02*
D03*
X216500Y420000D02*
D03*
Y380000D02*
D03*
X191500Y420000D02*
D03*
Y380000D02*
D03*
D66*
X515303Y454731D02*
D03*
X545636Y424165D02*
D03*
X531440Y448826D02*
D03*
X530187Y431688D02*
D03*
D67*
X519953Y145220D02*
D03*
X531173Y162970D02*
D03*
D68*
X66217Y128636D02*
D03*
D69*
X74715Y119198D02*
D03*
X83213Y109760D02*
D03*
X91711Y100323D02*
D03*
X100209Y90885D02*
D03*
D70*
X167421Y506277D02*
D03*
X22426Y297986D02*
D03*
X137921Y73715D02*
D03*
X457921D02*
D03*
X428421Y506277D02*
D03*
X573416Y297986D02*
D03*
D71*
X475444Y498758D02*
D03*
X471169Y515401D02*
D03*
X492486Y496552D02*
D03*
X495038Y479559D02*
D03*
D72*
X90048Y482574D02*
D03*
X110006Y502856D02*
D03*
X106895Y485957D02*
D03*
X88681Y465445D02*
D03*
X72268Y460358D02*
D03*
D73*
X297213Y123510D02*
D03*
X277463D02*
D03*
Y103760D02*
D03*
X297213D02*
D03*
X316963D02*
D03*
Y123510D02*
D03*
Y143260D02*
D03*
X297213D02*
D03*
X277463D02*
D03*
M02*
