G04*
G04 #@! TF.GenerationSoftware,Altium Limited,Altium Designer,22.7.1 (60)*
G04*
G04 Layer_Color=8388736*
%FSLAX44Y44*%
%MOMM*%
G71*
G04*
G04 #@! TF.SameCoordinates,79595E02-05C2-4DB9-B37B-C8AD278AF881*
G04*
G04*
G04 #@! TF.FilePolarity,Positive*
G04*
G01*
G75*
%ADD47C,0.2540*%
D47*
X440000Y350000D02*
X388000D01*
Y429691D01*
X440000D02*
X388000D01*
X440000Y350000D02*
Y429691D01*
X372000Y350000D02*
X320000D01*
Y429691D01*
X372000D02*
X320000D01*
X372000Y350000D02*
Y429691D01*
X300000Y350000D02*
X248000D01*
Y429691D01*
X300000D02*
X248000D01*
X300000Y350000D02*
Y429691D01*
X230000Y350309D02*
X178000D01*
Y430000D01*
X230000D02*
X178000D01*
X230000Y350309D02*
Y430000D01*
X550788Y159013D02*
X552533Y158324D01*
X548927Y159248D02*
X550788Y159013D01*
X547431Y159097D02*
X548927Y159248D01*
X545995Y158651D02*
X547431Y159097D01*
X544678Y157927D02*
X545995Y158651D01*
X543531Y156955D02*
X544678Y157927D01*
X542601Y155774D02*
X543531Y156955D01*
X541925Y154431D02*
X542601Y155774D01*
X541531Y152980D02*
X541925Y154431D01*
X541434Y151479D02*
X541531Y152980D01*
X541434Y151479D02*
X541639Y149990D01*
X542137Y148571D01*
X542908Y147280D01*
X543921Y146169D01*
X544123Y145947D01*
X544277Y145690D01*
X544377Y145407D01*
X544418Y145109D01*
X544399Y144810D02*
X544418Y145109D01*
X544321Y144520D02*
X544399Y144810D01*
X544187Y144251D02*
X544321Y144520D01*
X542447Y141498D02*
X544187Y144251D01*
X542262Y141262D02*
X542447Y141498D01*
X542034Y141067D02*
X542262Y141262D01*
X541771Y140921D02*
X542034Y141067D01*
X541485Y140831D02*
X541771Y140921D01*
X541186Y140800D02*
X541485Y140831D01*
X540887Y140828D02*
X541186Y140800D01*
X540600Y140916D02*
X540887Y140828D01*
X537707Y141497D02*
X540600Y140916D01*
X536146Y141332D02*
X537707Y141497D01*
X534654Y140847D02*
X536146Y141332D01*
X533296Y140062D02*
X534654Y140847D01*
X532131Y139011D02*
X533296Y140062D01*
X531210Y137741D02*
X532131Y139011D01*
X530573Y136306D02*
X531210Y137741D01*
X530249Y134771D02*
X530573Y136306D01*
X530249Y134771D02*
X530252Y133202D01*
X530581Y131668D01*
X531222Y130236D01*
X532147Y128969D01*
X533316Y127922D01*
X538253Y124355D01*
X538502Y124128D01*
X538695Y123851D01*
X538820Y123539D01*
X538873Y123206D01*
X538850Y122870D02*
X538873Y123206D01*
X538753Y122547D02*
X538850Y122870D01*
X538586Y122254D02*
X538753Y122547D01*
X527757Y108311D02*
X538586Y122254D01*
X516122Y95034D02*
X527757Y108311D01*
X503721Y82469D02*
X516122Y95034D01*
X490597Y70660D02*
X503721Y82469D01*
X476797Y59649D02*
X490597Y70660D01*
X462370Y49475D02*
X476797Y59649D01*
X447365Y40173D02*
X462370Y49475D01*
X431836Y31775D02*
X447365Y40173D01*
X415836Y24312D02*
X431836Y31775D01*
X399423Y17810D02*
X415836Y24312D01*
X382654Y12291D02*
X399423Y17810D01*
X365587Y7775D02*
X382654Y12291D01*
X348283Y4277D02*
X365587Y7775D01*
X330801Y1810D02*
X348283Y4277D01*
X313205Y383D02*
X330801Y1810D01*
X295555Y0D02*
X313205Y383D01*
X277913Y663D02*
X295555Y0D01*
X260341Y2370D02*
X277913Y663D01*
X242902Y5114D02*
X260341Y2370D01*
X225655Y8886D02*
X242902Y5114D01*
X208662Y13673D02*
X225655Y8886D01*
X191982Y19457D02*
X208662Y13673D01*
X175675Y26219D02*
X191982Y19457D01*
X159796Y33935D02*
X175675Y26219D01*
X144402Y42578D02*
X159796Y33935D01*
X129547Y52118D02*
X144402Y42578D01*
X115282Y62520D02*
X129547Y52118D01*
X101659Y73748D02*
X115282Y62520D01*
X88725Y85764D02*
X101659Y73748D01*
X76525Y98525D02*
X88725Y85764D01*
X65102Y111985D02*
X76525Y98525D01*
X54496Y126098D02*
X65102Y111985D01*
X44744Y140815D02*
X54496Y126098D01*
X35881Y156084D02*
X44744Y140815D01*
X27938Y171850D02*
X35881Y156084D01*
X20942Y188059D02*
X27938Y171850D01*
X14919Y204654D02*
X20942Y188059D01*
X9889Y221576D02*
X14919Y204654D01*
X5869Y238767D02*
X9889Y221576D01*
X2875Y256166D02*
X5869Y238767D01*
X916Y273711D02*
X2875Y256166D01*
X0Y291341D02*
X916Y273711D01*
X0Y291341D02*
X129Y308995D01*
X1304Y326610D01*
X3519Y344125D01*
X6768Y361478D01*
X11039Y378608D01*
X16317Y395455D01*
X22583Y411959D01*
X29815Y428064D01*
X37989Y443713D01*
X47075Y458849D01*
X57041Y473422D01*
X57200Y473594D01*
X57396Y473724D01*
X57616Y473805D01*
X57849Y473833D01*
X58072Y473808D01*
X58284Y473733D01*
X58474Y473614D01*
X61430Y471248D01*
X62323Y470677D01*
X63316Y470307D01*
X64365Y470155D01*
X65422Y470228D01*
X66440Y470522D01*
X67373Y471024D01*
X68180Y471711D01*
X68823Y472553D01*
X69275Y473512D01*
X69514Y474544D01*
X69530Y475604D01*
X69322Y476643D02*
X69530Y475604D01*
X68900Y477615D02*
X69322Y476643D01*
X68283Y478476D02*
X68900Y477615D01*
X68165Y478638D02*
X68283Y478476D01*
X68082Y478820D02*
X68165Y478638D01*
X68037Y479015D02*
X68082Y478820D01*
X68032Y479215D02*
X68037Y479015D01*
X68032Y479215D02*
X68066Y479412D01*
X68139Y479598D01*
X68248Y479766D01*
X70231Y482243D01*
X70389Y482401D01*
X70578Y482520D01*
X70789Y482594D01*
X71012Y482619D01*
X71262Y482587D01*
X71497Y482493D01*
X72471Y482080D01*
X73509Y481880D01*
X74566Y481904D01*
X75594Y482150D01*
X76548Y482606D01*
X77384Y483253D01*
X78066Y484061D01*
X78562Y484995D01*
X78851Y486012D01*
X78919Y487067D01*
X78764Y488113D02*
X78919Y487067D01*
X78392Y489102D02*
X78764Y488113D01*
X77821Y489992D02*
X78392Y489102D01*
X77712Y490159D02*
X77821Y489992D01*
X77638Y490346D02*
X77712Y490159D01*
X77603Y490543D02*
X77638Y490346D01*
X77603Y490543D02*
X77608Y490743D01*
X77653Y490938D01*
X77735Y491120D01*
X77852Y491282D01*
X79959Y493655D01*
X80115Y493797D01*
X80297Y493903D01*
X80497Y493969D01*
X80707Y493991D01*
X80983Y493952D01*
X81237Y493839D01*
X82188Y493377D01*
X83214Y493124D01*
X84271Y493094D01*
X85311Y493287D01*
X86286Y493694D01*
X87155Y494297D01*
X87877Y495069D01*
X88420Y495976D01*
X88761Y496977D01*
X88883Y498027D01*
X88781Y499080D02*
X88883Y498027D01*
X88461Y500087D02*
X88781Y499080D01*
X87936Y501004D02*
X88461Y500087D01*
X87835Y501178D02*
X87936Y501004D01*
X87771Y501367D02*
X87835Y501178D01*
X87746Y501566D02*
X87771Y501367D01*
X87746Y501566D02*
X87761Y501765D01*
X87816Y501958D01*
X87908Y502136D01*
X88033Y502292D01*
X90259Y504553D01*
X90467Y504715D01*
X90710Y504817D01*
X90971Y504852D01*
X91173Y504831D01*
X91367Y504770D01*
X91544Y504672D01*
X92470Y504161D01*
X93483Y503857D01*
X94537Y503773D01*
X95584Y503912D01*
X96580Y504268D01*
X97478Y504826D01*
X98238Y505560D01*
X98828Y506438D01*
X99219Y507421D01*
X99395Y508463D01*
X99347Y509519D02*
X99395Y508463D01*
X99079Y510542D02*
X99347Y509519D01*
X98601Y511485D02*
X99079Y510542D01*
X98510Y511663D02*
X98601Y511485D01*
X98455Y511856D02*
X98510Y511663D01*
X98441Y512055D02*
X98455Y511856D01*
X98441Y512055D02*
X98466Y512254D01*
X98530Y512443D01*
X98631Y512616D01*
X98764Y512766D01*
X101103Y514910D01*
X101304Y515053D01*
X101534Y515143D01*
X101779Y515173D01*
X101997Y515149D01*
X102205Y515078D01*
X102393Y514963D01*
X103293Y514405D01*
X104291Y514049D01*
X105342Y513912D01*
X106398Y513999D01*
X107412Y514307D01*
X108338Y514822D01*
X109135Y515520D01*
X109767Y516371D01*
X110205Y517336D01*
X110429Y518372D01*
X110431Y519431D01*
X110209Y520467D02*
X110431Y519431D01*
X109773Y521433D02*
X110209Y520467D01*
X109143Y522286D02*
X109773Y521433D01*
X106584Y525076D02*
X109143Y522286D01*
X106463Y525238D02*
X106584Y525076D01*
X106377Y525420D02*
X106463Y525238D01*
X106330Y525617D02*
X106377Y525420D01*
X106323Y525818D02*
X106330Y525617D01*
X106323Y525818D02*
X106357Y526017D01*
X106429Y526205D01*
X106538Y526375D01*
X106679Y526519D01*
X122036Y538538D01*
X138146Y549527D01*
X154941Y559439D01*
X172348Y568231D01*
X190292Y575865D01*
X208698Y582310D01*
X227485Y587537D01*
X223925Y583453D02*
X227485Y587537D01*
X221418Y578649D02*
X223925Y583453D01*
X220105Y573392D02*
X221418Y578649D01*
X219697Y571770D02*
X220105Y573392D01*
X218916Y570291D02*
X219697Y571770D01*
X217806Y569040D02*
X218916Y570291D01*
X216431Y568087D02*
X217806Y569040D01*
X214869Y567488D02*
X216431Y568087D01*
X208995Y565403D02*
X214869Y567488D01*
X203617Y562250D02*
X208995Y565403D01*
X198928Y558142D02*
X203617Y562250D01*
X195095Y553226D02*
X198928Y558142D01*
X192255Y547676D02*
X195095Y553226D01*
X190510Y541692D02*
X192255Y547676D01*
X189921Y535486D02*
X190510Y541692D01*
X189921Y496713D02*
Y535486D01*
X179599Y486430D02*
X189921Y496713D01*
X170253Y475253D02*
X179599Y486430D01*
X165084Y469743D02*
X170253Y475253D01*
X158904Y465397D02*
X165084Y469743D01*
X151971Y462396D02*
X158904Y465397D01*
X144572Y460867D02*
X151971Y462396D01*
X139556Y459780D02*
X144572Y460867D01*
X134906Y457608D02*
X139556Y459780D01*
X130853Y454459D02*
X134906Y457608D01*
X127600Y450490D02*
X130853Y454459D01*
X125308Y445898D02*
X127600Y450490D01*
X123760Y442735D02*
X125308Y445898D01*
X121594Y439958D02*
X123760Y442735D01*
X118903Y437688D02*
X121594Y439958D01*
X115801Y436020D02*
X118903Y437688D01*
X112422Y435028D02*
X115801Y436020D01*
X104723Y433057D02*
X112422Y435028D01*
X97365Y430052D02*
X104723Y433057D01*
X90486Y426069D02*
X97365Y430052D01*
X84218Y421183D02*
X90486Y426069D01*
X78675Y415486D02*
X84218Y421183D01*
X73964Y409085D02*
X78675Y415486D01*
X70172Y402100D02*
X73964Y409085D01*
X67370Y394663D02*
X70172Y402100D01*
X65612Y386912D02*
X67370Y394663D01*
X64930Y378993D02*
X65612Y386912D01*
X64930Y378993D02*
X65336Y371055D01*
X66825Y363248D01*
X69366Y355717D01*
X72913Y348605D01*
X77400Y342044D01*
X82741Y336158D01*
X88836Y331058D01*
X95572Y326838D01*
X102821Y323580D01*
X110448Y321343D01*
X115318Y319652D01*
X119660Y316874D01*
X123237Y313162D01*
X125852Y308720D01*
X128643Y304002D01*
X132471Y300078D01*
X137118Y297171D01*
X142322Y295447D01*
X147785Y295003D01*
X148629Y295019D01*
X153847Y294391D01*
X158768Y292543D01*
X163110Y289580D01*
X166626Y285672D01*
X174812Y275007D01*
X183863Y265065D01*
X189459Y260402D01*
X195841Y256890D01*
X202774Y254657D01*
X210006Y253784D01*
X218967Y252490D01*
X227370Y249116D01*
X238362Y243682D01*
X249768Y239184D01*
X261510Y235652D01*
X273505Y233111D01*
X285670Y231580D01*
X297921Y231068D01*
X310172Y231580D01*
X322337Y233111D01*
X334332Y235652D01*
X346074Y239184D01*
X357480Y243682D01*
X368471Y249116D01*
X376875Y252490D01*
X385836Y253784D01*
X393068Y254657D01*
X400001Y256890D01*
X406383Y260402D01*
X411979Y265065D01*
X421030Y275007D01*
X429216Y285672D01*
X432732Y289580D01*
X437074Y292543D01*
X441995Y294391D01*
X447213Y295019D01*
X448057Y295003D01*
X453520Y295447D01*
X458724Y297171D01*
X463371Y300078D01*
X467199Y304002D01*
X469990Y308720D01*
X472605Y313162D01*
X476182Y316874D01*
X480524Y319652D01*
X485394Y321343D01*
X493021Y323580D01*
X500270Y326838D01*
X507006Y331058D01*
X513101Y336158D01*
X518442Y342044D01*
X522929Y348605D01*
X526476Y355717D01*
X529017Y363248D01*
X530505Y371055D01*
X530912Y378993D01*
X530230Y386912D02*
X530912Y378993D01*
X528472Y394663D02*
X530230Y386912D01*
X525670Y402100D02*
X528472Y394663D01*
X521878Y409085D02*
X525670Y402100D01*
X517167Y415486D02*
X521878Y409085D01*
X511624Y421183D02*
X517167Y415486D01*
X505355Y426069D02*
X511624Y421183D01*
X498477Y430052D02*
X505355Y426069D01*
X491119Y433057D02*
X498477Y430052D01*
X483420Y435028D02*
X491119Y433057D01*
X480041Y436020D02*
X483420Y435028D01*
X476939Y437688D02*
X480041Y436020D01*
X474248Y439958D02*
X476939Y437688D01*
X472082Y442735D02*
X474248Y439958D01*
X470534Y445898D02*
X472082Y442735D01*
X468242Y450490D02*
X470534Y445898D01*
X464989Y454459D02*
X468242Y450490D01*
X460936Y457608D02*
X464989Y454459D01*
X456286Y459780D02*
X460936Y457608D01*
X451270Y460867D02*
X456286Y459780D01*
X443871Y462396D02*
X451270Y460867D01*
X436937Y465397D02*
X443871Y462396D01*
X430758Y469743D02*
X436937Y465397D01*
X425589Y475253D02*
X430758Y469743D01*
X416243Y486430D02*
X425589Y475253D01*
X405921Y496713D02*
X416243Y486430D01*
X405921Y496713D02*
Y535486D01*
X405332Y541692D02*
X405921Y535486D01*
X403587Y547676D02*
X405332Y541692D01*
X400747Y553226D02*
X403587Y547676D01*
X396914Y558142D02*
X400747Y553226D01*
X392225Y562250D02*
X396914Y558142D01*
X386847Y565403D02*
X392225Y562250D01*
X380973Y567488D02*
X386847Y565403D01*
X379411Y568087D02*
X380973Y567488D01*
X378036Y569040D02*
X379411Y568087D01*
X376926Y570291D02*
X378036Y569040D01*
X376145Y571770D02*
X376926Y570291D01*
X375737Y573392D02*
X376145Y571770D01*
X374423Y578649D02*
X375737Y573392D01*
X371917Y583453D02*
X374423Y578649D01*
X368357Y587537D02*
X371917Y583453D01*
X368357Y587537D02*
X386955Y582369D01*
X405181Y576008D01*
X422956Y568480D01*
X440206Y559818D01*
X456859Y550056D01*
X472846Y539237D01*
X472996Y539103D01*
X473117Y538941D01*
X473203Y538759D01*
X473250Y538563D01*
X473257Y538361D01*
X473223Y538162D02*
X473257Y538361D01*
X473150Y537974D02*
X473223Y538162D01*
X473041Y537804D02*
X473150Y537974D01*
X470681Y534843D02*
X473041Y537804D01*
X470112Y533949D02*
X470681Y534843D01*
X469745Y532955D02*
X470112Y533949D01*
X469595Y531906D02*
X469745Y532955D01*
X469595Y531906D02*
X469670Y530849D01*
X469966Y529832D01*
X470470Y528899D01*
X471159Y528094D01*
X472002Y527453D01*
X472962Y527004D01*
X473995Y526767D01*
X475054Y526753D01*
X476093Y526963D01*
X477064Y527387D01*
X477924Y528006D01*
X478123Y528145D01*
X478350Y528232D01*
X478591Y528261D01*
X478814Y528236D01*
X479025Y528162D01*
X479214Y528043D01*
X481696Y526066D01*
X481839Y525926D01*
X481952Y525761D01*
X482029Y525576D01*
X482068Y525380D01*
X482067Y525180D02*
X482068Y525380D01*
X482026Y524984D02*
X482067Y525180D01*
X481948Y524800D02*
X482026Y524984D01*
X481537Y523826D02*
X481948Y524800D01*
X481340Y522787D02*
X481537Y523826D01*
X481340Y522787D02*
X481366Y521730D01*
X481613Y520702D01*
X482072Y519750D01*
X482720Y518915D01*
X483530Y518235D01*
X484465Y517741D01*
X485482Y517454D01*
X486538Y517388D01*
X487583Y517545D01*
X488572Y517919D01*
X489460Y518492D01*
X489651Y518614D01*
X489864Y518689D01*
X490088Y518714D01*
X490327Y518685D01*
X490552Y518600D01*
X490751Y518464D01*
X493128Y516362D01*
X493264Y516215D01*
X493368Y516044D01*
X493435Y515856D01*
X493464Y515658D01*
X493453Y515458D02*
X493464Y515658D01*
X493403Y515264D02*
X493453Y515458D01*
X493314Y515084D02*
X493403Y515264D01*
X492854Y514133D02*
X493314Y515084D01*
X492604Y513105D02*
X492854Y514133D01*
X492576Y512048D02*
X492604Y513105D01*
X492576Y512048D02*
X492771Y511009D01*
X493180Y510034D01*
X493785Y509167D01*
X494559Y508447D01*
X495467Y507906D01*
X496469Y507567D01*
X497519Y507447D01*
X498571Y507551D01*
X499578Y507874D01*
X500494Y508401D01*
X500675Y508505D01*
X500874Y508570D01*
X501082Y508592D01*
X501337Y508558D01*
X501576Y508461D01*
X501782Y508306D01*
X504048Y506085D01*
X504176Y505932D01*
X504271Y505756D01*
X504329Y505564D01*
X504348Y505365D01*
X504327Y505166D02*
X504348Y505365D01*
X504266Y504975D02*
X504327Y505166D01*
X504169Y504800D02*
X504266Y504975D01*
X503660Y503871D02*
X504169Y504800D01*
X503358Y502855D02*
X503660Y503871D01*
X503276Y501799D02*
X503358Y502855D01*
X503276Y501799D02*
X503420Y500749D01*
X503782Y499753D01*
X504345Y498855D01*
X505085Y498097D01*
X505968Y497512D01*
X506955Y497126D01*
X508001Y496956D01*
X509059Y497011D01*
X510082Y497289D01*
X511024Y497775D01*
X511841Y498449D01*
X514492Y501154D01*
X514700Y501316D01*
X514944Y501419D01*
X515206Y501454D01*
X515410Y501433D01*
X515605Y501371D01*
X515783Y501270D01*
X515937Y501135D01*
X528779Y486415D01*
X540629Y470884D01*
X540729Y470709D01*
X540792Y470517D01*
X540815Y470317D01*
X540797Y470116D02*
X540815Y470317D01*
X540739Y469923D02*
X540797Y470116D01*
X540644Y469745D02*
X540739Y469923D01*
X540515Y469590D02*
X540644Y469745D01*
X540357Y469464D02*
X540515Y469590D01*
X537176Y467409D02*
X540357Y469464D01*
X536352Y466743D02*
X537176Y467409D01*
X535687Y465918D02*
X536352Y466743D01*
X535211Y464972D02*
X535687Y465918D01*
X534945Y463946D02*
X535211Y464972D01*
X534901Y462887D02*
X534945Y463946D01*
X534901Y462887D02*
X535081Y461843D01*
X535478Y460860D01*
X536073Y459983D01*
X536839Y459252D01*
X537743Y458698D01*
X538742Y458347D01*
X539794Y458215D01*
X540849Y458307D01*
X541862Y458620D01*
X542055Y458681D01*
X542257Y458701D01*
X542503Y458670D01*
X542735Y458580D01*
X542937Y458434D01*
X543097Y458244D01*
X544818Y455579D01*
X544910Y455401D01*
X544963Y455208D01*
X544978Y455008D01*
X544952Y454810D02*
X544978Y455008D01*
X544888Y454620D02*
X544952Y454810D01*
X544787Y454448D02*
X544888Y454620D01*
X544653Y454298D02*
X544787Y454448D01*
X543953Y453506D02*
X544653Y454298D01*
X543435Y452584D02*
X543953Y453506D01*
X543123Y451574D02*
X543435Y452584D01*
X543030Y450521D02*
X543123Y451574D01*
X543030Y450521D02*
X543161Y449472D01*
X543509Y448474D01*
X544060Y447571D01*
X544788Y446805D01*
X545662Y446209D01*
X546641Y445810D01*
X547682Y445626D01*
X548738Y445665D01*
X549763Y445925D01*
X550110Y445987D01*
X550318Y445965D01*
X550518Y445901D01*
X550699Y445796D01*
X550854Y445656D01*
X550977Y445486D01*
X552560Y442737D01*
X552642Y442554D01*
X552686Y442359D01*
X552690Y442159D01*
X552654Y441962D02*
X552690Y442159D01*
X552580Y441776D02*
X552654Y441962D01*
X552471Y441608D02*
X552580Y441776D01*
X552330Y441466D02*
X552471Y441608D01*
X551590Y440711D02*
X552330Y441466D01*
X551026Y439817D02*
X551590Y440711D01*
X550662Y438824D02*
X551026Y439817D01*
X550515Y437777D02*
X550662Y438824D01*
X550515Y437777D02*
X550592Y436723D01*
X550889Y435708D01*
X551393Y434779D01*
X552081Y433976D01*
X552923Y433336D01*
X553880Y432887D01*
X554910Y432650D01*
X555968Y432635D01*
X557004Y432842D01*
X557303Y432888D01*
X557521Y432864D01*
X557729Y432793D01*
X557916Y432678D01*
X558074Y432525D01*
X558194Y432342D01*
X559634Y429515D01*
X559707Y429328D01*
X559741Y429131D01*
X559735Y428931D02*
X559741Y429131D01*
X559689Y428736D02*
X559735Y428931D01*
X559605Y428554D02*
X559689Y428736D01*
X559487Y428393D02*
X559605Y428554D01*
X559339Y428258D02*
X559487Y428393D01*
X558560Y427540D02*
X559339Y428258D01*
X557950Y426673D02*
X558560Y427540D01*
X557537Y425698D02*
X557950Y426673D01*
X557338Y424657D02*
X557537Y425698D01*
X557338Y424657D02*
X557363Y423598D01*
X557611Y422567D01*
X558071Y421613D01*
X558721Y420776D01*
X559534Y420096D01*
X560471Y419602D01*
X561492Y419317D01*
X562549Y419253D01*
X563597Y419414D01*
X564587Y419792D01*
X567961Y421511D01*
X568181Y421592D01*
X568415Y421620D01*
X568642Y421594D01*
X568857Y421517D01*
X569049Y421393D01*
X569208Y421229D01*
X569326Y421033D01*
X576374Y404123D01*
X582369Y386812D01*
X587290Y369165D01*
X591117Y351249D01*
X593836Y333132D01*
X595437Y314882D01*
X595913Y296568D01*
X595262Y278260D02*
X595913Y296568D01*
X593489Y260026D02*
X595262Y278260D01*
X590597Y241936D02*
X593489Y260026D01*
X586600Y224057D02*
X590597Y241936D01*
X581512Y206458D02*
X586600Y224057D01*
X575352Y189205D02*
X581512Y206458D01*
X568143Y172362D02*
X575352Y189205D01*
X559913Y155995D02*
X568143Y172362D01*
X559720Y155719D02*
X559913Y155995D01*
X559470Y155492D02*
X559720Y155719D01*
X559176Y155328D02*
X559470Y155492D01*
X558853Y155232D02*
X559176Y155328D01*
X558517Y155212D02*
X558853Y155232D01*
X558185Y155267D02*
X558517Y155212D01*
X557873Y155395D02*
X558185Y155267D01*
X552533Y158324D02*
X557873Y155395D01*
M02*
